REM MD5 2ffd30561a7a2de0978522c7ddef036c
FILE "PlayStation Sampler (Europe).bin" BINARY
  TRACK 01 MODE2/2352
    INDEX 01 00:00:00
  TRACK 02 AUDIO
    INDEX 00 13:08:62
    INDEX 01 13:10:62
  TRACK 03 AUDIO
    INDEX 00 18:44:60
    INDEX 01 18:46:60
REM LEADOUT 22:04:15
